<?xml version="1.0" encoding="UTF-8" standalone="no"?>
<!-- Created with Inkscape (http://www.inkscape.org/) -->

<svg
   version="1.1"
   id="svg2"
   width="480"
   height="336"
   viewBox="0 0 480 336"
   sodipodi:docname="RR-23-0001 Restart Ranch Logo BC REV FINAL.ai"
   xmlns:inkscape="http://www.inkscape.org/namespaces/inkscape"
   xmlns:sodipodi="http://sodipodi.sourceforge.net/DTD/sodipodi-0.dtd"
   xmlns="http://www.w3.org/2000/svg"
   xmlns:svg="http://www.w3.org/2000/svg">
  <defs
     id="defs6">
    <clipPath
       clipPathUnits="userSpaceOnUse"
       id="clipPath16">
      <path
         d="M 0,252 H 360 V 0 H 0 Z"
         id="path14" />
    </clipPath>
  </defs>
  <sodipodi:namedview
     id="namedview4"
     pagecolor="#ffffff"
     bordercolor="#000000"
     borderopacity="0.25"
     inkscape:showpageshadow="2"
     inkscape:pageopacity="0.0"
     inkscape:pagecheckerboard="0"
     inkscape:deskcolor="#d1d1d1" />
  <g
     id="g8"
     inkscape:groupmode="layer"
     inkscape:label="RR-23-0001 Restart Ranch Logo BC REV FINAL"
     transform="matrix(1.3333333,0,0,-1.3333333,0,336)">
    <g
       id="g10">
      <g
         id="g12"
         clip-path="url(#clipPath16)">
        <g
           id="g18"
           transform="translate(182.8596,228.9496)">
          <path
             d="m 0,0 -0.374,-97.328 2.737,-5.863 4.852,95.917 c 9.625,-0.638 16.27,-5.37 20.717,-11.226 0,-6.588 -5.144,-18.111 -13.354,-23.231 l -2.328,-1.341 c 0.387,-0.409 0.761,-0.825 1.122,-1.248 4.427,-5.188 6.894,-11.38 7.105,-17.365 2.238,5.224 2.019,12.076 -2.996,18.288 8.505,4.456 14.027,12.53 16.156,22.695 0.194,0.926 0.517,1.826 0.721,2.759 -0.828,1.595 -1.818,3.125 -2.962,4.575 C 25.603,-6.021 15.958,-1.94 4.66,-0.379 3.403,-0.205 1.296,-0.078 0,0 m 35.59,-10.904 c 1.017,-1.29 1.905,-2.645 2.673,-4.05 9.735,2.258 17.972,7.929 22.445,16.527 3.155,6.064 4.013,12.779 2.907,19.407 L 61.611,20.647 C 61.339,17.057 60.386,13.549 58.676,10.261 53.498,0.307 42.649,-5.313 30.29,-5.784 c 0.004,-0.01 0.008,-0.019 0.012,-0.028 1.997,-1.486 3.776,-3.175 5.288,-5.092 m -46.144,10.525 c -11.298,-1.561 -20.943,-5.642 -26.736,-12.989 -1.144,-1.45 -2.135,-2.98 -2.962,-4.575 0.204,-0.933 0.527,-1.833 0.721,-2.759 2.129,-10.165 7.651,-18.239 16.156,-22.695 -5.015,-6.212 -5.234,-13.064 -2.996,-18.288 0.211,5.985 2.678,12.177 7.105,17.365 0.361,0.423 0.735,0.839 1.122,1.248 l -2.328,1.341 c -8.21,5.12 -13.354,16.643 -13.354,23.231 4.447,5.856 11.092,10.588 20.716,11.226 l 4.853,-95.917 2.736,5.863 L -5.894,0 c -1.296,-0.078 -3.403,-0.205 -4.66,-0.379 m -30.93,-10.525 c -1.017,-1.29 -1.905,-2.645 -2.673,-4.05 -9.735,2.258 -17.972,7.929 -22.445,16.527 -3.155,6.064 -4.013,12.779 -2.907,19.407 l 2.004,-0.333 c 0.272,-3.59 1.225,-7.098 2.935,-10.386 5.178,-9.954 16.027,-15.574 28.386,-16.045 -0.004,-0.01 -0.008,-0.019 -0.012,-0.028 -1.997,-1.486 -3.777,-3.175 -5.288,-5.092 m 210.791,-209.818 -1.475,-2.382 h 2.877 z m 1.529,-6.015 -0.328,1.236 c 0,0 1.567,0.087 1.199,0.711 l -0.169,0.283 h -4.571 l -0.174,-0.283 c -0.381,-0.614 1.164,-0.711 1.164,-0.711 l -0.326,-1.236 h -4.2 l -0.326,1.236 c 0,0 1.3,0.092 1.681,0.711 l 2.226,3.606 c 0.38,0.622 -1.04,0.718 -1.04,0.718 l 0.326,1.236 h 7.617 l 0.326,-1.236 c 0,0 -1.42,-0.096 -1.04,-0.718 l 2.226,-3.606 c 0.38,-0.619 1.713,-0.711 1.713,-0.711 l -0.325,-1.236 z m -22.446,0 -0.328,1.236 c 0,0 1.452,0.074 1.452,0.716 v 4.145 h -1.696 c -0.942,0 -2.074,-1.31 -2.074,-1.31 l -1.064,0.701 0.94,2.019 h 11.265 l 0.948,-2.019 -1.072,-0.701 c 0,0 -1.127,1.31 -2.072,1.31 h -1.698 v -4.145 c 0,-0.642 1.457,-0.716 1.457,-0.716 l -0.326,-1.236 z m -18.529,6.097 v -1.969 h 2.415 c 1.181,0 1.507,0.452 1.507,0.985 0,0.577 -0.358,0.984 -1.507,0.984 z m 4.106,-6.097 -3.395,2.725 h -0.711 v -0.773 c 0,-0.642 1.457,-0.716 1.457,-0.716 l -0.325,-1.236 h -5.735 l -0.326,1.236 c 0,0 1.452,0.074 1.452,0.716 v 3.601 c 0,0.644 -1.452,0.718 -1.452,0.718 l 0.326,1.236 h 8.771 c 2.75,0 3.491,-1.213 3.491,-2.377 0,-0.796 -0.641,-1.97 -2.802,-2.176 l 1.661,-1.246 c 0.696,-0.522 1.609,-0.609 1.609,-0.609 l -0.289,-1.099 z m -28.618,0 -0.326,1.236 c 0,0 1.457,0.074 1.457,0.716 v 3.601 c 0,0.644 -1.457,0.718 -1.457,0.718 l 0.326,1.236 h 10.946 l 0.94,-2.019 -1.066,-0.706 c 0,0 -1.127,1.315 -2.072,1.315 h -4.14 v -1.621 h 3.665 v -1.447 h -3.665 v -1.627 h 4.384 c 0.947,0 2.074,1.318 2.074,1.318 l 1.064,-0.701 -0.94,-2.019 z m -15.548,3.325 v -1.923 h 3.178 c 0.836,0 1.159,0.48 1.159,0.975 0,0.445 -0.328,0.948 -1.159,0.948 z m 0,2.772 v -1.43 h 2.621 c 0.833,0 1.062,0.344 1.062,0.702 0,0.408 -0.224,0.728 -1.062,0.728 z m -4.608,-6.097 -0.326,1.228 c 0,0 1.452,0.077 1.452,0.719 v 3.606 c 0,0.644 -1.452,0.718 -1.452,0.718 l 0.326,1.236 h 8.666 c 2.607,0 3.248,-0.902 3.248,-1.827 0,-0.642 -0.288,-1.274 -1.29,-1.617 1.606,-0.338 1.942,-1.283 1.942,-1.979 0,-0.97 -0.57,-2.084 -3.248,-2.084 z m -19.009,0 -0.326,1.236 c 0,0 1.452,0.074 1.452,0.716 v 3.601 c 0,0.644 -1.452,0.718 -1.452,0.718 l 0.326,1.236 h 5.732 l 0.328,-1.236 c 0,0 -1.46,-0.074 -1.46,-0.718 v -4.151 h 3.576 c 1.353,0 2.892,1.773 2.892,1.773 l 0.844,-0.559 -1.234,-2.616 z m -15.481,6.015 -1.474,-2.382 h 2.877 z m 1.53,-6.015 -0.329,1.236 c 0,0 1.567,0.087 1.199,0.711 l -0.169,0.283 h -4.571 l -0.174,-0.283 c -0.38,-0.614 1.164,-0.711 1.164,-0.711 l -0.326,-1.236 h -4.2 l -0.326,1.236 c 0,0 1.301,0.092 1.681,0.711 l 2.226,3.606 c 0.38,0.622 -1.04,0.718 -1.04,0.718 l 0.326,1.236 h 7.617 l 0.326,-1.236 c 0,0 -1.42,-0.096 -1.039,-0.718 l 2.225,-3.606 c 0.381,-0.619 1.714,-0.711 1.714,-0.711 l -0.326,-1.236 z m -16.699,2.648 c -0.816,0 -1.453,0.458 -1.453,1.286 0,0.788 0.637,1.283 1.453,1.283 0.818,0 1.405,-0.495 1.405,-1.283 0,-0.828 -0.587,-1.286 -1.405,-1.286 m -16.309,-2.648 -0.328,1.236 c 0,0 1.708,0.124 1.044,0.716 l -1.283,1.144 -2.034,-1.025 v -0.119 c 0,-0.642 1.452,-0.716 1.452,-0.716 l -0.326,-1.236 h -5.734 l -0.326,1.236 c 0,0 1.457,0.074 1.457,0.716 v 3.601 c 0,0.644 -1.457,0.718 -1.457,0.718 l 0.326,1.236 h 5.734 l 0.326,-1.236 c 0,0 -1.452,-0.074 -1.452,-0.718 v -1.778 l 3.444,1.778 c 1.214,0.626 -0.485,0.718 -0.485,0.718 l 0.326,1.236 h 5.899 l 0.326,-1.236 c 0,0 -1.366,-0.109 -2.584,-0.718 l -1.98,-0.995 3.094,-2.606 c 0.736,-0.619 1.959,-0.716 1.959,-0.716 l -0.328,-1.236 z m -27.119,0 -0.325,1.236 c 0,0 1.457,0.074 1.457,0.716 v 3.601 c 0,0.644 -1.457,0.718 -1.457,0.718 l 0.325,1.236 H 3.053 l 0.94,-2.019 -1.066,-0.706 c 0,0 -1.127,1.315 -2.072,1.315 h -4.141 v -1.621 H 0.38 v -1.447 h -3.666 v -1.627 h 4.385 c 0.947,0 2.074,1.318 2.074,1.318 l 1.064,-0.701 -0.94,-2.019 z m -19.909,0 -0.327,1.236 c 0,0 1.458,0.074 1.458,0.716 v 3.601 c 0,0.644 -1.458,0.718 -1.458,0.718 l 0.327,1.236 h 10.947 l 0.94,-2.019 -1.067,-0.706 c 0,0 -1.126,1.315 -2.073,1.315 h -4.139 v -1.621 h 3.666 v -1.447 h -3.666 v -1.627 h 4.384 c 0.947,0 2.074,1.318 2.074,1.318 l 1.065,-0.701 -0.94,-2.019 z m -15.691,6.097 v -1.969 h 2.416 c 1.18,0 1.507,0.452 1.507,0.985 0,0.577 -0.359,0.984 -1.507,0.984 z m 4.107,-6.097 -3.394,2.725 h -0.713 v -0.773 c 0,-0.642 1.459,-0.716 1.459,-0.716 l -0.327,-1.236 h -5.733 l -0.327,1.236 c 0,0 1.453,0.074 1.453,0.716 v 3.601 c 0,0.644 -1.453,0.718 -1.453,0.718 l 0.327,1.236 h 8.769 c 2.752,0 3.492,-1.213 3.492,-2.377 0,-0.796 -0.642,-1.97 -2.802,-2.176 l 1.66,-1.246 c 0.697,-0.522 1.609,-0.609 1.609,-0.609 l -0.287,-1.099 z m -16.405,1.713 c 0,0 -1.762,-1.855 -5.733,-1.855 -4.652,0 -6.773,1.437 -6.773,3.917 0,2.482 2.121,3.916 6.773,3.916 1.724,0 2.785,-0.325 3.71,-0.325 0.451,0 0.875,0.161 0.875,0.161 l 0.935,-2.021 -1.065,-0.709 c 0,0 -1.153,1.507 -4.102,1.507 -1.659,0 -3.372,-0.811 -3.372,-2.529 0,-1.719 1.795,-2.529 3.454,-2.529 2.899,0 4.521,1.544 4.521,1.544 z m -32.958,-1.131 c -1.991,0 -3.248,-0.724 -5.815,-0.724 -4.085,0 -6.604,1.524 -6.604,3.917 0,2.395 2.568,3.916 6.653,3.916 1.757,0 3.155,-0.325 3.83,-0.325 0.456,0 0.88,0.161 0.88,0.161 l 0.937,-2.026 -1.072,-0.704 c 0,0 -1.153,1.507 -4.096,1.507 -1.818,0 -3.378,-0.858 -3.378,-2.529 0,-1.676 1.642,-2.529 3.214,-2.529 0.893,0 1.708,0.156 2.4,0.363 v 0.288 c 0,0.838 -1.181,0.965 -1.617,0.965 l 0.327,1.234 h 5.473 l 0.327,-1.234 c 0,0 -1.459,-0.077 -1.459,-0.719 z m -20.951,0 c -1.991,0 -3.248,-0.724 -5.816,-0.724 -4.084,0 -6.603,1.524 -6.603,3.917 0,2.395 2.567,3.916 6.653,3.916 1.757,0 3.155,-0.325 3.83,-0.325 0.456,0 0.88,0.161 0.88,0.161 l 0.936,-2.026 -1.071,-0.704 c 0,0 -1.153,1.507 -4.096,1.507 -1.818,0 -3.379,-0.858 -3.379,-2.529 0,-1.676 1.643,-2.529 3.215,-2.529 0.892,0 1.708,0.156 2.399,0.363 v 0.288 c 0,0.838 -1.181,0.965 -1.616,0.965 l 0.327,1.234 h 5.472 l 0.327,-1.234 c 0,0 -1.458,-0.077 -1.458,-0.719 z m -26.783,5.433 -1.474,-2.382 h 2.878 z m 1.529,-6.015 -0.327,1.236 c 0,0 1.567,0.087 1.198,0.711 l -0.17,0.283 h -4.569 l -0.174,-0.283 c -0.381,-0.614 1.164,-0.711 1.164,-0.711 l -0.326,-1.236 h -4.2 l -0.326,1.236 c 0,0 1.299,0.092 1.681,0.711 l 2.224,3.606 c 0.381,0.622 -1.039,0.718 -1.039,0.718 l 0.327,1.236 h 7.616 l 0.326,-1.236 c 0,0 -1.419,-0.096 -1.039,-0.718 l 2.225,-3.606 c 0.38,-0.619 1.713,-0.711 1.713,-0.711 l -0.326,-1.236 z m -22.821,6.097 v -1.969 h 2.416 c 1.18,0 1.507,0.452 1.507,0.985 0,0.577 -0.36,0.984 -1.507,0.984 z m 4.107,-6.097 -3.395,2.725 h -0.712 v -0.773 c 0,-0.642 1.458,-0.716 1.458,-0.716 l -0.327,-1.236 h -5.733 l -0.326,1.236 c 0,0 1.452,0.074 1.452,0.716 v 3.601 c 0,0.644 -1.452,0.718 -1.452,0.718 l 0.326,1.236 h 8.768 c 2.753,0 3.493,-1.213 3.493,-2.377 0,-0.796 -0.642,-1.97 -2.801,-2.176 l 1.658,-1.246 c 0.697,-0.522 1.612,-0.609 1.612,-0.609 l -0.289,-1.099 z m -24.257,3.325 v -1.923 h 3.177 c 0.837,0 1.158,0.48 1.158,0.975 0,0.445 -0.326,0.948 -1.158,0.948 z m 0,2.772 v -1.43 h 2.621 c 0.833,0 1.062,0.344 1.062,0.702 0,0.408 -0.224,0.728 -1.062,0.728 z m -4.608,-6.097 -0.326,1.228 c 0,0 1.453,0.077 1.453,0.719 v 3.606 c 0,0.644 -1.453,0.718 -1.453,0.718 l 0.326,1.236 h 8.665 c 2.607,0 3.248,-0.902 3.248,-1.827 0,-0.642 -0.288,-1.274 -1.289,-1.617 1.605,-0.338 1.942,-1.283 1.942,-1.979 0,-0.97 -0.571,-2.084 -3.248,-2.084 z m 279.848,25.422 h -200.577 v -1.91 H 97.314 Z m -11.803,15.231 -0.688,2.601 c 0,0 3.06,0.149 3.06,1.502 v 2.67 h -9.041 v -2.67 c 0,-1.353 3.059,-1.502 3.059,-1.502 l -0.688,-2.601 H 69.134 l -0.688,2.601 c 0,0 3.072,0.149 3.072,1.502 v 7.598 c 0,1.352 -3.072,1.512 -3.072,1.512 l 0.688,2.602 h 12.079 l 0.688,-2.602 c 0,0 -3.059,-0.16 -3.059,-1.512 v -1.972 h 9.041 v 1.972 c 0,1.352 -3.06,1.512 -3.06,1.512 l 0.688,2.602 h 12.09 l 0.688,-2.602 c 0,0 -3.072,-0.16 -3.072,-1.512 v -7.598 c 0,-1.353 3.072,-1.502 3.072,-1.502 l -0.688,-2.601 z m -31.362,3.609 c 0,0 -3.713,-3.907 -12.08,-3.907 -9.798,0 -14.267,3.025 -14.267,8.251 0,5.226 4.469,8.252 14.267,8.252 3.633,0 5.868,-0.688 7.817,-0.688 0.95,0 1.844,0.344 1.844,0.344 l 1.972,-4.264 -2.246,-1.489 c 0,0 -2.431,3.174 -8.641,3.174 -3.496,0 -7.106,-1.708 -7.106,-5.329 0,-3.621 3.781,-5.329 7.277,-5.329 6.109,0 9.523,3.255 9.523,3.255 z m -49.56,-3.609 -13.97,10.142 v -6.028 c 0,-1.352 3.072,-1.513 3.072,-1.513 l -0.688,-2.601 h -8.297 l -0.688,2.601 c 0,0 3.06,0.161 3.06,1.513 v 7.587 c 0,1.352 -3.06,1.512 -3.06,1.512 l 0.688,2.602 h 9.638 l 12.95,-9.191 v 5.077 c 0,1.352 -3.06,1.512 -3.06,1.512 l 0.687,2.602 h 8.298 l 0.687,-2.602 c 0,0 -3.071,-0.16 -3.071,-1.512 v -11.701 z m -52.924,12.675 -3.106,-5.02 h 6.062 z m 3.22,-12.675 -0.688,2.601 c 0,0 3.301,0.183 2.522,1.502 l -0.356,0.595 h -9.626 l -0.367,-0.595 c -0.803,-1.295 2.452,-1.502 2.452,-1.502 l -0.687,-2.601 h -8.848 l -0.687,2.601 c 0,0 2.739,0.195 3.541,1.502 l 4.687,7.598 c 0.803,1.306 -2.189,1.512 -2.189,1.512 l 0.688,2.602 h 16.045 l 0.687,-2.602 c 0,0 -2.992,-0.206 -2.189,-1.512 l 4.687,-7.598 c 0.802,-1.307 3.61,-1.502 3.61,-1.502 l -0.687,-2.601 z m -34.669,0 c -10.338,0 -13.008,8.526 -13.008,8.526 0,0 0.527,-0.034 1.146,-0.034 2.005,0 5.971,0.286 5.971,2.555 0,1.215 -0.998,1.8 -3.472,1.8 h -4.642 v -8.733 c 0,-1.352 3.06,-1.513 3.06,-1.513 l -0.688,-2.601 h -12.079 l -0.687,2.601 c 0,0 3.071,0.161 3.071,1.513 v 7.587 c 0,1.352 -3.071,1.512 -3.071,1.512 l 0.687,2.602 h 18.016 c 5.925,0 7.77,-2.143 7.77,-4.596 0,-2.922 -3.29,-4.091 -5.902,-4.549 1.536,-3.977 7.105,-4.069 7.105,-4.069 l -0.699,-2.601 z m 227.563,28.957 -0.998,3.779 c 0,0 4.445,0.234 4.445,2.199 v 2.463 c 0,1.832 -1.781,3.115 -1.781,3.115 0,0 1.781,1.298 1.781,3.129 v 3.98 h -5.195 c -2.88,0 -6.343,-4.013 -6.343,-4.013 l -3.264,2.148 2.881,6.177 h 34.482 l 2.897,-6.177 -3.28,-2.148 c 0,0 -3.447,4.013 -6.344,4.013 h -5.195 v -3.98 c 0,-1.831 1.782,-3.129 1.782,-3.129 0,0 -1.782,-1.25 -1.782,-3.115 v -2.463 c 0,-1.965 4.463,-2.199 4.463,-2.199 l -0.999,-3.779 z m -28.99,0 c -15.018,0 -18.898,12.388 -18.898,12.388 0,0 0.765,-0.05 1.665,-0.05 2.914,0 8.674,0.416 8.674,3.712 0,1.766 -1.448,2.615 -5.045,2.615 h -6.742 v -12.687 c 0,-1.965 4.445,-2.199 4.445,-2.199 l -0.999,-3.779 H 84.34 l -0.999,3.779 c 0,0 4.462,0.234 4.462,2.199 v 2.463 c 0,1.849 -1.781,3.115 -1.781,3.115 0,0 1.781,1.298 1.781,3.129 v 2.315 c 0,1.964 -4.462,2.197 -4.462,2.197 l 0.999,3.78 h 26.173 c 6.278,0 9.408,-1.665 10.64,-3.946 0.999,-1.848 2.331,-2.731 2.331,-2.731 0,0 -1.349,-0.799 -2.348,-2.513 -1.431,-2.448 -4.978,-3.58 -7.908,-4.096 2.231,-5.778 10.322,-5.912 10.322,-5.912 l -1.015,-3.779 z m -74.376,18.415 -4.863,-7.859 c 0,0 1.949,-0.316 4.879,-0.316 2.93,0 4.629,0.283 4.629,0.283 z m 4.678,-18.415 -0.999,3.779 c 0,0 4.795,0.283 3.663,2.199 l -0.35,0.582 c 0,0 -3.213,-0.649 -6.976,-0.649 -3.763,0 -7.293,0.716 -7.293,0.716 l -0.416,-0.649 c -1.166,-1.882 3.563,-2.199 3.563,-2.199 l -0.999,-3.779 H 26.431 l -1,3.779 c 0,0 3.98,0.283 5.145,2.182 l 1.632,2.664 c 0.682,1.115 0.016,3.429 0.016,3.429 0,0 2.415,0.467 3.081,1.549 l 2.081,3.397 c 1.166,1.898 -3.18,2.197 -3.18,2.197 l 0.999,3.78 h 23.31 l 0.999,-3.78 c 0,0 -4.345,-0.299 -3.181,-2.197 l 2.099,-3.413 c 0.649,-1.066 3.08,-1.549 3.08,-1.549 0,0 -0.683,-2.314 0,-3.429 l 1.631,-2.648 c 1.166,-1.899 5.245,-2.182 5.245,-2.182 l -0.999,-3.779 z m -61.278,0 -0.999,3.779 c 0,0 4.445,0.234 4.445,2.199 v 2.463 c 0,1.832 -1.781,3.115 -1.781,3.115 0,0 1.781,1.298 1.781,3.129 v 3.98 h -5.195 c -2.879,0 -6.343,-4.013 -6.343,-4.013 l -3.263,2.148 2.88,6.177 H 13.82 l 2.897,-6.177 -3.28,-2.148 c 0,0 -3.446,4.013 -6.344,4.013 H 1.899 v -3.98 c 0,-1.831 1.782,-3.129 1.782,-3.129 0,0 -1.782,-1.25 -1.782,-3.115 v -2.463 c 0,-1.965 4.462,-2.199 4.462,-2.199 l -0.999,-3.779 z m -29.059,15.302 c 0,0 -3.979,3.996 -13.02,3.996 -3.197,0 -7.809,-0.5 -7.809,-2.132 0,-0.982 1.831,-1.365 4.379,-1.615 1.465,-0.149 3.13,1.548 3.13,1.548 0,0 1.249,-1.897 2.697,-2.014 6.927,-0.583 14.786,-1.748 14.786,-7.525 0,-6.228 -9.324,-7.992 -18.015,-7.992 -6.328,0 -9.974,0.998 -13.204,0.998 -1.382,0 -2.681,-0.5 -2.681,-0.5 l -2.564,6.162 3.197,1.881 c 0,0 4.213,-4.279 13.67,-4.279 3.846,0 9.607,0.466 9.607,2.314 0,1.182 -2.448,1.482 -6.061,1.799 -1.515,0.133 -3.197,-1.533 -3.197,-1.533 0,0 -1.398,1.849 -2.747,1.982 -6.527,0.616 -13.27,1.948 -13.27,7.293 0,5.228 6.227,7.858 16.8,7.858 5.877,0 8.891,-0.999 12.221,-0.999 1.381,0 2.68,0.5 2.68,0.5 l 2.465,-5.994 z m -83.803,-15.302 -0.999,3.763 c 0,0 4.446,0.233 4.446,2.198 v 2.48 c 0,1.832 -1.782,3.115 -1.782,3.115 0,0 1.782,1.298 1.782,3.129 v 2.315 c 0,1.964 -4.446,2.197 -4.446,2.197 l 0.999,3.78 h 33.483 l 2.897,-6.194 -3.28,-2.147 c 0,0 -3.446,4.029 -6.343,4.029 h -12.654 v -5.012 h 7.359 c 1.832,0 1.998,2.448 1.998,2.448 l 3.779,-1 v -7.242 l -3.779,-0.999 c 0,0 -0.166,2.464 -1.998,2.464 h -7.359 v -5.028 h 13.402 c 2.898,0 6.344,4.029 6.344,4.029 l 3.281,-2.148 -2.898,-6.177 z m -22.081,0 c -15.019,0 -18.898,12.388 -18.898,12.388 0,0 0.765,-0.05 1.665,-0.05 2.914,0 8.674,0.416 8.674,3.712 0,1.766 -1.448,2.615 -5.045,2.615 h -6.743 v -12.687 c 0,-1.965 4.446,-2.199 4.446,-2.199 l -0.999,-3.779 h -17.549 l -0.999,3.779 c 0,0 4.462,0.234 4.462,2.199 v 2.463 c 0,1.849 -1.781,3.115 -1.781,3.115 0,0 1.781,1.298 1.781,3.129 v 2.315 c 0,1.964 -4.462,2.197 -4.462,2.197 l 0.999,3.78 h 26.173 c 6.278,0 9.408,-1.665 10.639,-3.946 1,-1.848 2.332,-2.731 2.332,-2.731 0,0 -1.349,-0.799 -2.348,-2.513 -1.431,-2.448 -4.978,-3.58 -7.908,-4.096 2.231,-5.778 10.322,-5.912 10.322,-5.912 l -1.015,-3.779 z"
             style="fill:#ffffff;fill-opacity:1;fill-rule:nonzero;stroke:none"
             id="path20" />
        </g>
      </g>
    </g>
  </g>
</svg>
